<svg xmlns="http://www.w3.org/2000/svg" xmlns:xlink="http://www.w3.org/1999/xlink" viewBox="0 0 64 64" id="mobile-key"><defs><linearGradient id="b" x1="7" x2="40" y1="32" y2="32" gradientUnits="userSpaceOnUse"><stop offset="0" stop-color="#015bbb"></stop><stop offset="1" stop-color="#02aff8"></stop></linearGradient><linearGradient id="a" x1="11" x2="36" y1="32.5" y2="32.5" gradientUnits="userSpaceOnUse"><stop offset="0" stop-color="#02aff8"></stop><stop offset="1" stop-color="#02dbf8"></stop></linearGradient><linearGradient id="c" x1="18" x2="57" y1="32" y2="32" gradientUnits="userSpaceOnUse"><stop offset="0" stop-color="#0c408d"></stop><stop offset="1" stop-color="#015bbb"></stop></linearGradient><linearGradient id="d" x1="16" x2="18" y1="10" y2="10" xlink:href="#a"></linearGradient><linearGradient id="e" x1="21" x2="32" y1="10" y2="10" xlink:href="#a"></linearGradient></defs><g data-name="key smartphone"><path fill="url(#b)" d="M21,28l-3,4,3,4h3a4.24,4.24,0,0,1,6,0,4.24,4.24,0,0,1,6,0h4V53a3.8,3.8,0,0,1-.38,1.68,4.67,4.67,0,0,1-.27.49,3.79,3.79,0,0,1-.34.45,3.59,3.59,0,0,1-.39.39,4.08,4.08,0,0,1-.39.31,3.66,3.66,0,0,1-.68.36,1.88,1.88,0,0,1-.3.12,3.8,3.8,0,0,1-.51.13l-.3,0L36,57H11l-.44,0-.29,0a4,4,0,0,1-.52-.13,1.88,1.88,0,0,1-.3-.12,3.4,3.4,0,0,1-.68-.36A4.08,4.08,0,0,1,8.38,56,3.59,3.59,0,0,1,8,55.62a3.79,3.79,0,0,1-.34-.45,4.67,4.67,0,0,1-.27-.49A3.8,3.8,0,0,1,7,53V11a4,4,0,0,1,4-4H36a4,4,0,0,1,4,4V28Z"></path><circle cx="17" cy="10" r="1" fill="#015bbb"></circle><path fill="#015bbb" d="M31,11H22a1,1,0,0,1,0-2h9a1,1,0,0,1,0,2Z"></path><path fill="url(#a)" d="M21,28l-3,4,3,4h3a4.24,4.24,0,0,1,6,0,4.24,4.24,0,0,1,6,0h0V52H11V13H36V28Z"></path><path fill="url(#c)" d="M57,31.09A8,8,0,0,0,42.08,28H21l-3,4,3,4h3a4.24,4.24,0,0,1,6,0,4.24,4.24,0,0,1,6,0h6.08A8,8,0,0,0,57,31.09ZM51,34a2,2,0,1,1,2-2A2,2,0,0,1,51,34Z"></path><circle cx="17" cy="10" r="1" fill="url(#d)"></circle><path fill="url(#e)" d="M31,11H22a1,1,0,0,1,0-2h9a1,1,0,0,1,0,2Z"></path><path fill="#122333" d="M36,44a1,1,0,0,1-1-1V36.45a3.3,3.3,0,0,0-4.29.26,1,1,0,0,1-1.42,0,3.3,3.3,0,0,0-4.58,0A1,1,0,0,1,24,37H21a1,1,0,0,1-.8-.4l-3-4a1,1,0,0,1,0-1.2l3-4A1,1,0,0,1,21,27H35V14H12v7a1,1,0,0,1-2,0V13a1,1,0,0,1,1-1H36a1,1,0,0,1,1,1V28a1,1,0,0,1-1,1H21.5l-2.25,3,2.25,3h2.11A5.24,5.24,0,0,1,30,34.7a5.26,5.26,0,0,1,6.71.59A1,1,0,0,1,37,36v7A1,1,0,0,1,36,44Z"></path><path fill="#122333" d="M36,53H11a1,1,0,0,1-1-1V25a1,1,0,0,1,2,0V51H35V47a1,1,0,0,1,2,0v5A1,1,0,0,1,36,53Z"></path><path fill="#122333" d="M36,58H11l-.51,0-.44-.07a4.52,4.52,0,0,1-.6-.16,3.25,3.25,0,0,1-.4-.15,4.27,4.27,0,0,1-.83-.45,5,5,0,0,1-.52-.4,4.3,4.3,0,0,1-.47-.48,6.07,6.07,0,0,1-.43-.57,4.83,4.83,0,0,1-.32-.59A4.7,4.7,0,0,1,6,53V11a5,5,0,0,1,5-5H25a1,1,0,0,1,0,2H11a3,3,0,0,0-3,3V53a2.72,2.72,0,0,0,.28,1.24,3.78,3.78,0,0,0,.22.4,2,2,0,0,0,.25.33l.28.28c.12.11.22.18.32.26a2.13,2.13,0,0,0,.45.23l.1,0,.14.05a2.79,2.79,0,0,0,.39.1l.24.05H36.31l.13,0,.1,0a2.64,2.64,0,0,0,.41-.11l.15-.05a3.85,3.85,0,0,0,.58-.3c.07-.06.17-.13.26-.22a3,3,0,0,0,.31-.3,2,2,0,0,0,.25-.33c.08-.13.15-.25.22-.39A2.79,2.79,0,0,0,39,53V37H36a1,1,0,0,1-.71-.29,3.23,3.23,0,0,0-4.58,0,1,1,0,0,1-1.42,0,3.3,3.3,0,0,0-4.58,0A1,1,0,0,1,24,37H21a1,1,0,0,1-.8-.4l-3-4a1,1,0,0,1,0-1.2l3-4A1,1,0,0,1,21,27H39V11a3,3,0,0,0-3-3H29a1,1,0,0,1,0-2h7a5,5,0,0,1,5,5V28a1,1,0,0,1-1,1H21.5l-2.25,3,2.25,3h2.11A5.24,5.24,0,0,1,30,34.7a5.24,5.24,0,0,1,6.39.3H40a1,1,0,0,1,1,1V53a4.78,4.78,0,0,1-.48,2.12,5.57,5.57,0,0,1-.32.58,6.07,6.07,0,0,1-.43.57,3.94,3.94,0,0,1-.5.5,3.9,3.9,0,0,1-.46.36,4.58,4.58,0,0,1-.89.48,2.72,2.72,0,0,1-.38.15,5.44,5.44,0,0,1-.64.16l-.16,0-.1,0-.13,0Z"></path><path fill="#122333" d="M49,41a9,9,0,0,1-7.47-4H36a1,1,0,0,1-.71-.29,3.23,3.23,0,0,0-4.58,0,1,1,0,0,1-1.42,0,3.23,3.23,0,0,0-4.58,0A1,1,0,0,1,24,37H21a1,1,0,0,1-.8-.4l-3-4a1,1,0,0,1,0-1.2l3-4A1,1,0,0,1,21,27H41.53a8.9,8.9,0,0,1,4.19-3.37,1,1,0,1,1,.72,1.86,7,7,0,0,0-3.49,3,1,1,0,0,1-.87.5H21.5l-2.25,3,2.25,3h2.11A5.36,5.36,0,0,1,30,34.7a5.24,5.24,0,0,1,6.39.3h5.69a1,1,0,0,1,.87.5,7,7,0,1,0,7.18-10.41,1,1,0,0,1,.3-2A9,9,0,0,1,49,41Z"></path><path fill="#122333" d="M51,35a3,3,0,1,1,3-3A3,3,0,0,1,51,35Zm0-4a1,1,0,1,0,1,1A1,1,0,0,0,51,31Z"></path></g></svg>